<mxfile host="app.diagrams.net" agent="Mozilla/5.0 (X11; Linux x86_64) AppleWebKit/537.36 (KHTML, like Gecko) Chrome/134.0.0.0 Safari/537.36" version="26.0.11">
  <diagram name="Page-1" id="rr12slvVFsiC7zKI51lk">
    <mxGraphModel dx="1668" dy="886" grid="1" gridSize="10" guides="1" tooltips="1" connect="1" arrows="1" fold="1" page="1" pageScale="1" pageWidth="827" pageHeight="1169" math="0" shadow="0">
      <root>
        <mxCell id="0" />
        <mxCell id="1" parent="0" />
        <mxCell id="WXjnpvs_C6IBGlx3V8_t-4" value="" style="rounded=1;whiteSpace=wrap;html=1;fillColor=#dae8fc;strokeColor=#6c8ebf;" vertex="1" parent="1">
          <mxGeometry x="100" y="140" width="340" height="330" as="geometry" />
        </mxCell>
        <mxCell id="WXjnpvs_C6IBGlx3V8_t-1" value="" style="shape=cylinder3;whiteSpace=wrap;html=1;boundedLbl=1;backgroundOutline=1;size=15;" vertex="1" parent="1">
          <mxGeometry x="150" y="220" width="130" height="200" as="geometry" />
        </mxCell>
        <mxCell id="WXjnpvs_C6IBGlx3V8_t-3" value="User" style="shape=umlActor;verticalLabelPosition=bottom;verticalAlign=top;html=1;outlineConnect=0;" vertex="1" parent="1">
          <mxGeometry x="80" y="585" width="30" height="60" as="geometry" />
        </mxCell>
        <mxCell id="WXjnpvs_C6IBGlx3V8_t-5" value="" style="rounded=1;whiteSpace=wrap;html=1;" vertex="1" parent="1">
          <mxGeometry x="140" y="560" width="150" height="110" as="geometry" />
        </mxCell>
        <mxCell id="WXjnpvs_C6IBGlx3V8_t-6" value="" style="rounded=1;whiteSpace=wrap;html=1;fillColor=#d5e8d4;strokeColor=#82b366;" vertex="1" parent="1">
          <mxGeometry x="490" y="225" width="220" height="130" as="geometry" />
        </mxCell>
        <mxCell id="WXjnpvs_C6IBGlx3V8_t-7" value="Azure Container App job" style="rounded=1;whiteSpace=wrap;html=1;" vertex="1" parent="1">
          <mxGeometry x="310" y="330" width="100" height="60" as="geometry" />
        </mxCell>
        <mxCell id="WXjnpvs_C6IBGlx3V8_t-8" value="&lt;font style=&quot;font-size: 20px;&quot;&gt;Safety Culture&lt;/font&gt;" style="text;strokeColor=none;align=center;fillColor=none;html=1;verticalAlign=middle;whiteSpace=wrap;rounded=0;" vertex="1" parent="1">
          <mxGeometry x="520" y="270" width="160" height="30" as="geometry" />
        </mxCell>
        <mxCell id="WXjnpvs_C6IBGlx3V8_t-9" value="&lt;font style=&quot;font-size: 20px;&quot;&gt;Azure&lt;/font&gt;" style="text;strokeColor=none;align=center;fillColor=none;html=1;verticalAlign=middle;whiteSpace=wrap;rounded=0;" vertex="1" parent="1">
          <mxGeometry x="330" y="230" width="60" height="30" as="geometry" />
        </mxCell>
        <mxCell id="WXjnpvs_C6IBGlx3V8_t-10" value="&lt;font&gt;Power BI&lt;/font&gt;&lt;div&gt;&lt;font&gt;Service / desktop&lt;/font&gt;&lt;/div&gt;" style="text;strokeColor=none;align=center;fillColor=none;html=1;verticalAlign=middle;whiteSpace=wrap;rounded=0;fontSize=11;" vertex="1" parent="1">
          <mxGeometry x="140" y="600" width="150" height="30" as="geometry" />
        </mxCell>
        <mxCell id="WXjnpvs_C6IBGlx3V8_t-11" value="" style="endArrow=classic;html=1;rounded=0;exitX=0.5;exitY=0;exitDx=0;exitDy=0;entryX=0.5;entryY=1;entryDx=0;entryDy=0;strokeWidth=2;fillColor=#f8cecc;strokeColor=#b85450;" edge="1" parent="1" source="WXjnpvs_C6IBGlx3V8_t-5" target="WXjnpvs_C6IBGlx3V8_t-47">
          <mxGeometry width="50" height="50" relative="1" as="geometry">
            <mxPoint x="390" y="480" as="sourcePoint" />
            <mxPoint x="490" y="490" as="targetPoint" />
          </mxGeometry>
        </mxCell>
        <mxCell id="WXjnpvs_C6IBGlx3V8_t-46" value="Exported data&lt;div&gt;tables&lt;/div&gt;" style="shape=ext;margin=3;double=1;whiteSpace=wrap;html=1;align=center;" vertex="1" parent="1">
          <mxGeometry x="165" y="270" width="100" height="40" as="geometry" />
        </mxCell>
        <mxCell id="WXjnpvs_C6IBGlx3V8_t-47" value="Data views" style="shape=ext;margin=3;double=1;whiteSpace=wrap;html=1;align=center;" vertex="1" parent="1">
          <mxGeometry x="165" y="360" width="100" height="40" as="geometry" />
        </mxCell>
        <mxCell id="WXjnpvs_C6IBGlx3V8_t-48" value="" style="endArrow=classic;html=1;rounded=0;strokeWidth=2;exitX=0;exitY=0.5;exitDx=0;exitDy=0;entryX=1;entryY=0.5;entryDx=0;entryDy=0;" edge="1" parent="1" source="WXjnpvs_C6IBGlx3V8_t-6" target="WXjnpvs_C6IBGlx3V8_t-46">
          <mxGeometry width="50" height="50" relative="1" as="geometry">
            <mxPoint x="320" y="500" as="sourcePoint" />
            <mxPoint x="550" y="440" as="targetPoint" />
          </mxGeometry>
        </mxCell>
        <mxCell id="WXjnpvs_C6IBGlx3V8_t-49" value="" style="endArrow=classic;html=1;rounded=0;strokeWidth=2;exitX=0.5;exitY=1;exitDx=0;exitDy=0;entryX=0.5;entryY=0;entryDx=0;entryDy=0;" edge="1" parent="1" source="WXjnpvs_C6IBGlx3V8_t-46" target="WXjnpvs_C6IBGlx3V8_t-47">
          <mxGeometry width="50" height="50" relative="1" as="geometry">
            <mxPoint x="330" y="510" as="sourcePoint" />
            <mxPoint x="560" y="450" as="targetPoint" />
          </mxGeometry>
        </mxCell>
        <mxCell id="WXjnpvs_C6IBGlx3V8_t-50" value="" style="endArrow=classic;html=1;rounded=0;strokeWidth=2;entryX=0;entryY=0.5;entryDx=0;entryDy=0;fillColor=#f8cecc;strokeColor=#b85450;" edge="1" parent="1" source="WXjnpvs_C6IBGlx3V8_t-3" target="WXjnpvs_C6IBGlx3V8_t-5">
          <mxGeometry width="50" height="50" relative="1" as="geometry">
            <mxPoint x="340" y="520" as="sourcePoint" />
            <mxPoint x="570" y="460" as="targetPoint" />
          </mxGeometry>
        </mxCell>
        <mxCell id="WXjnpvs_C6IBGlx3V8_t-52" value="Key Vault" style="rounded=1;whiteSpace=wrap;html=1;" vertex="1" parent="1">
          <mxGeometry x="150" y="150" width="100" height="50" as="geometry" />
        </mxCell>
        <mxCell id="WXjnpvs_C6IBGlx3V8_t-53" value="Container registry" style="rounded=1;whiteSpace=wrap;html=1;" vertex="1" parent="1">
          <mxGeometry x="300" y="150" width="100" height="50" as="geometry" />
        </mxCell>
        <mxCell id="WXjnpvs_C6IBGlx3V8_t-54" style="edgeStyle=orthogonalEdgeStyle;rounded=0;orthogonalLoop=1;jettySize=auto;html=1;exitX=0.5;exitY=0.5;exitDx=0;exitDy=0;exitPerimeter=0;entryX=0;entryY=0.3333333333333333;entryDx=0;entryDy=0;entryPerimeter=0;" edge="1" parent="1" source="WXjnpvs_C6IBGlx3V8_t-3" target="WXjnpvs_C6IBGlx3V8_t-3">
          <mxGeometry relative="1" as="geometry" />
        </mxCell>
        <mxCell id="WXjnpvs_C6IBGlx3V8_t-55" value="Azure SQL Server&lt;div&gt;database&lt;/div&gt;" style="text;strokeColor=none;align=center;fillColor=none;html=1;verticalAlign=middle;whiteSpace=wrap;rounded=0;fontSize=11;" vertex="1" parent="1">
          <mxGeometry x="140" y="220" width="150" height="30" as="geometry" />
        </mxCell>
      </root>
    </mxGraphModel>
  </diagram>
</mxfile>
